<?xml version="1.0" encoding="UTF-8" standalone="no"?>
<svg width="960px" height="300px" viewBox="0 0 960 300" version="1.1" xmlns="http://www.w3.org/2000/svg" xmlns:xlink="http://www.w3.org/1999/xlink" xmlns:sketch="http://www.bohemiancoding.com/sketch/ns">
    <!-- Generator: Sketch 3.1.1 (8761) - http://www.bohemiancoding.com/sketch -->
    <title>work</title>
    <desc>Created with Sketch.</desc>
    <defs>
        <rect id="path-1" x="0" y="0" width="960" height="300"></rect>
    </defs>
    <g id="Page-1" stroke="none" stroke-width="1" fill="none" fill-rule="evenodd" sketch:type="MSPage">
        <g id="work" sketch:type="MSLayerGroup">
            <g id="Group">
                <rect id="Rectangle-path" fill="#CDE9E1" sketch:type="MSShapeGroup" x="0" y="0" width="960" height="300"></rect>
                <g id="Clipped">
                    <mask id="mask-2" sketch:name="SVGID_1_" fill="white">
                        <use xlink:href="#path-1"></use>
                    </mask>
                    <g id="SVGID_1_"></g>
                    <g id="Group" mask="url(#mask-2)">
                        <g transform="translate(-922.000000, -466.000000)">
                            <g id="Group" stroke-width="1" fill="none" sketch:type="MSLayerGroup" transform="translate(842.000000, 0.000000)">
                                <path d="M364.9,729.7 L451.6,556.3 C451.7,556.1 451.7,555.9 451.6,555.7 C451.5,555.5 451.3,555.4 451.1,555.4 L277.7,555.4 C277.5,555.4 277.3,555.5 277.2,555.7 C277.1,555.9 277.1,556.1 277.2,556.3 L363.9,729.7 C364,729.9 364.2,730 364.4,730 C364.6,730 364.8,729.9 364.9,729.7 L364.9,729.7 Z M450.1,556.6 L364.4,728.2 L278.7,556.6 L450.1,556.6 L450.1,556.6 Z" id="Shape" fill="#FFFFFF" sketch:type="MSShapeGroup"></path>
                                <path d="M139.5,729.7 L278.2,452.2 C278.3,452 278.3,451.8 278.2,451.6 C278.1,451.4 277.9,451.3 277.7,451.3 L0.3,451.3 C0.1,451.3 -0.1,451.4 -0.2,451.6 C-0.3,451.8 -0.3,452 -0.2,452.2 L138.5,729.7 C138.6,729.9 138.8,730 139,730 C139.2,730 139.4,729.9 139.5,729.7 L139.5,729.7 Z M276.7,452.5 L139,728.1 L1.3,452.5 L276.7,452.5 L276.7,452.5 Z" id="Shape" fill="#FFFFFF" sketch:type="MSShapeGroup"></path>
                                <path d="M815.6,729.7 L1179.6,1.3 C1179.7,1.1 1179.7,0.9 1179.6,0.7 C1179.5,0.5 1179.3,0.4 1179.1,0.4 L451,0.4 C450.8,0.4 450.6,0.5 450.5,0.7 C450.4,0.9 450.4,1.1 450.5,1.3 L814.5,729.7 C814.6,729.9 814.8,730 815,730 C815.3,730 815.5,729.9 815.6,729.7 L815.6,729.7 Z M1178.1,1.6 L815,728.1 L452,1.6 L1178.1,1.6 L1178.1,1.6 Z" id="Shape" fill="#FFFFFF" sketch:type="MSShapeGroup"></path>
                                <path d="M399.5,556.3 L451.5,452.2 C451.6,452 451.6,451.8 451.5,451.6 C451.4,451.4 451.2,451.3 451,451.3 L347,451.3 C346.8,451.3 346.6,451.4 346.5,451.6 C346.4,451.8 346.4,452 346.5,452.2 L398.5,556.3 C398.6,556.5 398.8,556.6 399,556.6 C399.2,556.6 399.4,556.5 399.5,556.3 L399.5,556.3 Z M450.1,452.5 L399,554.7 L348,452.5 L450.1,452.5 L450.1,452.5 Z" id="Shape" fill="#FFFFFF" sketch:type="MSShapeGroup"></path>
                                <path d="M312.9,521.6 L347.6,452.2 C347.7,452 347.7,451.8 347.6,451.6 C347.5,451.4 347.3,451.3 347.1,451.3 L277.8,451.3 C277.6,451.3 277.4,451.4 277.3,451.6 C277.2,451.8 277.2,452 277.3,452.2 L312,521.6 C312.1,521.8 312.3,521.9 312.5,521.9 C312.6,521.9 312.8,521.8 312.9,521.6 L312.9,521.6 Z M346.1,452.5 L312.3,520 L278.6,452.5 L346.1,452.5 L346.1,452.5 Z" id="Shape" fill="#FFFFFF" sketch:type="MSShapeGroup"></path>
                                <path d="M295.5,556.3 L312.8,521.6 C312.9,521.4 312.9,521.2 312.8,521 C312.7,520.8 312.5,520.7 312.3,520.7 L277.6,520.7 C277.4,520.7 277.2,520.8 277.1,521 C277,521.2 277,521.4 277.1,521.6 L294.4,556.3 C294.5,556.5 294.7,556.6 294.9,556.6 C295.2,556.6 295.4,556.5 295.5,556.3 L295.5,556.3 Z M311.4,521.9 L295,554.7 L278.6,521.9 L311.4,521.9 L311.4,521.9 Z" id="Shape" fill="#FFFFFF" sketch:type="MSShapeGroup"></path>
                                <path d="M330.2,556.3 L347.5,521.6 C347.6,521.4 347.6,521.2 347.5,521 C347.4,520.8 347.2,520.7 347,520.7 L312.3,520.7 C312.1,520.7 311.9,520.8 311.8,521 C311.7,521.2 311.7,521.4 311.8,521.6 L329.1,556.3 C329.2,556.5 329.4,556.6 329.6,556.6 C329.9,556.6 330.1,556.5 330.2,556.3 L330.2,556.3 Z M346.1,521.9 L329.7,554.7 L313.3,521.9 L346.1,521.9 L346.1,521.9 Z" id="Shape" fill="#FFFFFF" sketch:type="MSShapeGroup"></path>
                            </g>
                            <g id="Group" stroke-width="1" fill="none" sketch:type="MSLayerGroup" transform="translate(0.000000, 465.000000)">
                                <path d="M815.4,-0.2 C815.2,-0.2 815,-0.1 814.9,0.1 L450.9,728.5 C450.8,728.7 450.8,728.9 450.9,729.1 C451,729.3 451.2,729.4 451.4,729.4 L1179.5,729.4 C1179.7,729.4 1179.9,729.3 1180,729.1 C1180.1,728.9 1180.1,728.7 1180,728.5 L816,0.1 C815.8,-2.77555756e-17 815.6,-0.2 815.4,-0.2 L815.4,-0.2 Z M452.3,728.3 L815.4,1.7 L1178.5,728.3 L452.3,728.3 L452.3,728.3 Z" id="Shape" fill="#FFFFFF" sketch:type="MSShapeGroup"></path>
                            </g>
                            <path d="M1835.7,515 L1697,792.5 C1696.9,792.7 1696.9,792.9 1697,793.1 C1697.1,793.3 1697.3,793.4 1697.5,793.4 L1974.9,793.4 C1975.1,793.4 1975.3,793.3 1975.4,793.1 C1975.5,792.9 1975.5,792.7 1975.4,792.5 L1836.7,515 C1836.6,514.8 1836.4,514.7 1836.2,514.7 C1836,514.7 1835.8,514.8 1835.7,515 L1835.7,515 Z M1698.5,792.2 L1836.2,516.6 L1973.9,792.2 L1698.5,792.2 L1698.5,792.2 Z" id="Shape" fill="#FFFFFF" sketch:type="MSShapeGroup"></path>
                        </g>
                    </g>
                </g>
                <g transform="translate(144.000000, 105.000000)" id="Shape" sketch:type="MSShapeGroup">
                    <path d="M-0.2,0.1 L7.5,0.1 L12.5,19.4 L17.9,0.1 L25.4,0.1 L30.8,19.5 L35.7,0.1 L43.3,0.1 L34.6,31.9 L27,31.9 L21.5,12.2 L16.1,31.9 L8.4,31.9 L-0.2,0.1 L-0.2,0.1 Z" fill="#000000"></path>
                    <path d="M39.9,21 C39.9,14.8 44.7,9.7 51.3,9.7 C58,9.7 62.7,14.5 62.7,20.9 L62.7,23.4 L47,23.4 C47.7,25.3 49.4,26.3 51.6,26.3 C53.6,26.3 55.1,25.3 55.9,23.8 L61.8,26.8 C59.8,29.9 56.6,32.3 51.4,32.3 C44.3,32.3 39.9,27.3 39.9,21 L39.9,21 Z M47.1,18.2 L55.5,18.2 C54.8,16.5 53.3,15.6 51.4,15.6 C49.5,15.6 47.9,16.6 47.1,18.2 L47.1,18.2 Z" fill="#000000"></path>
                    <path d="M82.1,29.2 L82.1,31.9 L74.8,31.9 L74.8,0.1 L82.1,0.1 L82.1,12.7 C83.3,10.9 85.2,9.7 88,9.7 C93.1,9.7 97.8,14 97.8,21 C97.8,28.1 93.1,32.3 88.1,32.3 C85.3,32.3 83.3,31.2 82.1,29.2 L82.1,29.2 Z M90.5,21 C90.5,18.4 88.6,16.5 86.1,16.5 C83.6,16.5 81.8,18.5 81.8,21 C81.8,23.5 83.6,25.5 86.1,25.5 C88.6,25.5 90.5,23.6 90.5,21 L90.5,21 Z" fill="#000000"></path>
                    <path d="M99.1,21 C99.1,14.8 103.9,9.7 110.5,9.7 C117.2,9.7 121.9,14.5 121.9,20.9 L121.9,23.4 L106.2,23.4 C106.9,25.3 108.6,26.3 110.8,26.3 C112.8,26.3 114.3,25.3 115.1,23.8 L121,26.8 C119,29.9 115.8,32.3 110.6,32.3 C103.5,32.3 99.1,27.3 99.1,21 L99.1,21 Z M106.3,18.2 L114.7,18.2 C114,16.5 112.5,15.6 110.6,15.6 C108.7,15.6 107.1,16.6 106.3,18.2 L106.3,18.2 Z" fill="#000000"></path>
                    <path d="M123.6,0.1 L130.8,0.1 L130.8,31.9 L123.6,31.9 L123.6,0.1 L123.6,0.1 Z" fill="#000000"></path>
                    <path d="M132.9,1 L140.4,1 L140.4,8.6 L132.9,8.6 L132.9,1 L132.9,1 Z M132.9,10.1 L140.4,10.1 L140.4,31.9 L132.9,31.9 L132.9,10.1 L132.9,10.1 Z" fill="#000000"></path>
                    <path d="M142,21 C142,14.8 146.8,9.7 153.4,9.7 C160.1,9.7 164.8,14.5 164.8,20.9 L164.8,23.4 L149.1,23.4 C149.8,25.3 151.5,26.3 153.7,26.3 C155.7,26.3 157.2,25.3 158,23.8 L163.9,26.8 C161.9,29.9 158.7,32.3 153.5,32.3 C146.4,32.3 142,27.3 142,21 L142,21 Z M149.3,18.2 L157.7,18.2 C157,16.5 155.5,15.6 153.6,15.6 C151.7,15.6 150,16.6 149.3,18.2 L149.3,18.2 Z" fill="#000000"></path>
                    <path d="M163.7,10.1 L171.4,10.1 L175.4,21.9 L179.4,10.1 L187,10.1 L179.1,31.9 L171.8,31.9 L163.7,10.1 L163.7,10.1 Z" fill="#000000"></path>
                    <path d="M185.8,21 C185.8,14.8 190.6,9.7 197.2,9.7 C203.9,9.7 208.6,14.5 208.6,20.9 L208.6,23.4 L192.9,23.4 C193.6,25.3 195.3,26.3 197.5,26.3 C199.5,26.3 201,25.3 201.8,23.8 L207.7,26.8 C205.7,29.9 202.5,32.3 197.3,32.3 C190.1,32.3 185.8,27.3 185.8,21 L185.8,21 Z M193,18.2 L201.4,18.2 C200.7,16.5 199.2,15.6 197.3,15.6 C195.4,15.6 193.8,16.6 193,18.2 L193,18.2 Z" fill="#000000"></path>
                    <path d="M220.5,10.1 L224.1,10.1 L224.1,5 L231.5,1 L231.5,10 L235.5,10 L235.5,16.4 L231.5,16.4 L231.5,21.1 C231.5,24.5 231.8,24.8 235.5,24.8 L235.5,31.7 L233.5,31.7 C226.1,31.7 224.2,29.4 224.2,21.6 L224.2,16.4 L220.6,16.4 L220.6,10.1 L220.5,10.1 Z" fill="#000000"></path>
                    <path d="M237.3,0.1 L244.6,0.1 L244.6,12.5 C245.9,10.7 247.9,9.6 250.3,9.6 C255,9.6 258,12.6 258,17.9 L258,31.8 L250.5,31.8 L250.5,19.5 C250.5,17.2 249.6,16 247.7,16 C246,16 244.8,17.2 244.8,19.8 L244.8,31.8 L237.4,31.8 L237.4,0.1 L237.3,0.1 Z" fill="#000000"></path>
                    <path d="M259.6,21 C259.6,14 264.3,9.7 269.5,9.7 C272.2,9.7 274.1,10.8 275.3,12.6 L275.3,10.2 L282.7,10.2 L282.7,32 L275.3,32 L275.3,29.4 C274,31.3 272,32.4 269.4,32.4 C264.4,32.3 259.6,28.1 259.6,21 L259.6,21 Z M275.5,21 C275.5,18.5 273.7,16.5 271.2,16.5 C268.7,16.5 266.8,18.5 266.8,21 C266.8,23.6 268.7,25.5 271.2,25.5 C273.7,25.5 275.5,23.5 275.5,21 L275.5,21 Z" fill="#000000"></path>
                    <path d="M284.4,10.1 L288,10.1 L288,5 L295.4,1 L295.4,10 L299.4,10 L299.4,16.4 L295.4,16.4 L295.4,21.1 C295.4,24.5 295.7,24.8 299.4,24.8 L299.4,31.7 L297.4,31.7 C290,31.7 288.1,29.4 288.1,21.6 L288.1,16.4 L284.5,16.4 L284.5,10.1 L284.4,10.1 Z" fill="#000000"></path>
                    <path d="M311.5,10.1 L315.1,10.1 L315.1,5 L322.5,1 L322.5,10 L326.5,10 L326.5,16.4 L322.5,16.4 L322.5,21.1 C322.5,24.5 322.8,24.8 326.5,24.8 L326.5,31.7 L324.5,31.7 C317.1,31.7 315.2,29.4 315.2,21.6 L315.2,16.4 L311.6,16.4 L311.6,10.1 L311.5,10.1 Z" fill="#035A4B"></path>
                    <path d="M328.3,0.1 L335.6,0.1 L335.6,12.5 C336.9,10.7 338.9,9.6 341.3,9.6 C346,9.6 349,12.6 349,17.9 L349,31.8 L341.5,31.8 L341.5,19.5 C341.5,17.2 340.6,16 338.7,16 C337,16 335.8,17.2 335.8,19.8 L335.8,31.8 L328.4,31.8 L328.4,0.1 L328.3,0.1 Z" fill="#035A4B"></path>
                    <path d="M350.5,21 C350.5,14.8 355.3,9.7 361.9,9.7 C368.6,9.7 373.3,14.5 373.3,20.9 L373.3,23.4 L357.6,23.4 C358.3,25.3 360,26.3 362.2,26.3 C364.2,26.3 365.7,25.3 366.5,23.8 L372.4,26.8 C370.4,29.9 367.2,32.3 362,32.3 C354.9,32.3 350.5,27.3 350.5,21 L350.5,21 Z M357.8,18.2 L366.2,18.2 C365.5,16.5 364,15.6 362.1,15.6 C360.1,15.6 358.5,16.6 357.8,18.2 L357.8,18.2 Z" fill="#035A4B"></path>
                    <path d="M385.2,10.1 L388.4,10.1 C388.4,2.7 390.9,0.1 398.6,0.1 L399.4,0.1 L399.4,7.2 C396,7.2 395.7,7.5 395.7,9.7 L395.7,10 L399.4,10 L399.4,16.5 L395.7,16.5 L395.7,31.7 L388.4,31.7 L388.4,16.5 L385.2,16.5 L385.2,10.1 L385.2,10.1 Z" fill="#035A4B"></path>
                    <path d="M401.1,24 L401.1,10.2 L408.6,10.2 L408.6,22.5 C408.6,24.8 409.5,26 411.4,26 C413.1,26 414.3,24.8 414.3,22.2 L414.3,10.2 L421.7,10.2 L421.7,32 L414.3,32 L414.3,29.6 C413,31.4 411,32.5 408.7,32.5 C404.2,32.3 401.1,29.3 401.1,24 L401.1,24 Z" fill="#035A4B"></path>
                    <path d="M423.6,10.1 L427.2,10.1 L427.2,5 L434.6,1 L434.6,10 L438.6,10 L438.6,16.4 L434.6,16.4 L434.6,21.1 C434.6,24.5 434.9,24.8 438.6,24.8 L438.6,31.7 L436.6,31.7 C429.2,31.7 427.3,29.4 427.3,21.6 L427.3,16.4 L423.7,16.4 L423.7,10.1 L423.6,10.1 Z" fill="#035A4B"></path>
                    <path d="M440.4,24 L440.4,10.2 L447.9,10.2 L447.9,22.5 C447.9,24.8 448.8,26 450.7,26 C452.4,26 453.6,24.8 453.6,22.2 L453.6,10.2 L461,10.2 L461,32 L453.6,32 L453.6,29.6 C452.3,31.4 450.3,32.5 448,32.5 C443.4,32.3 440.4,29.3 440.4,24 L440.4,24 Z" fill="#035A4B"></path>
                    <path d="M463.1,10.1 L470.3,10.1 L470.3,13.9 C471.3,11.6 473.1,10.1 476.1,10.1 L478.5,10.1 L478.5,17.4 L474,17.4 C471.2,17.4 470.3,18.4 470.3,21.8 L470.3,31.9 L463.1,31.9 L463.1,10.1 L463.1,10.1 Z" fill="#035A4B"></path>
                    <path d="M479.3,21 C479.3,14.8 484.1,9.7 490.7,9.7 C497.4,9.7 502.1,14.5 502.1,20.9 L502.1,23.4 L486.4,23.4 C487.1,25.3 488.8,26.3 491,26.3 C493,26.3 494.5,25.3 495.3,23.8 L501.2,26.8 C499.2,29.9 496,32.3 490.8,32.3 C483.7,32.3 479.3,27.3 479.3,21 L479.3,21 Z M486.6,18.2 L495,18.2 C494.3,16.5 492.8,15.6 490.9,15.6 C488.9,15.6 487.3,16.6 486.6,18.2 L486.6,18.2 Z" fill="#035A4B"></path>
                    <path d="M514.3,1 L521.8,1 L521.8,8.6 L514.3,8.6 L514.3,1 L514.3,1 Z M514.3,10.1 L521.8,10.1 L521.8,31.9 L514.3,31.9 L514.3,10.1 L514.3,10.1 Z" fill="#035A4B"></path>
                    <path d="M522.7,25.9 L530,24.2 C530.5,25.9 531.9,26.8 533.6,26.8 C535.1,26.8 535.8,26.1 535.8,25.3 C535.8,24.3 533.8,24 531.3,23.5 C527.6,22.8 523.4,21.6 523.4,16.8 C523.4,12.8 527.5,9.6 533.1,9.7 C538.5,9.7 541.6,12 543.1,15.3 L536.4,17 C535.9,15.6 534.6,14.9 533.1,14.9 C531.7,14.9 530.9,15.5 530.9,16.2 C530.9,17 532.5,17.3 535.3,17.9 C539,18.6 543.5,19.9 543.5,24.9 C543.5,28.6 540.1,32.5 533.5,32.5 C527.6,32.3 524.1,29.9 522.7,25.9 L522.7,25.9 Z" fill="#035A4B"></path>
                    <path d="M555.1,21 C555.1,14 559.8,9.7 565,9.7 C567.6,9.7 569.5,10.7 570.7,12.4 L570.7,0.2 L578,0.2 L578,32 L570.7,32 L570.7,29.5 C569.4,31.4 567.4,32.4 564.8,32.4 C559.8,32.3 555.1,28.1 555.1,21 L555.1,21 Z M571,21 C571,18.5 569.2,16.5 566.7,16.5 C564.2,16.5 562.4,18.5 562.4,21 C562.4,23.6 564.3,25.5 566.7,25.5 C569.1,25.5 571,23.5 571,21 L571,21 Z" fill="#035A4B"></path>
                    <path d="M580.1,1 L587.6,1 L587.6,8.6 L580.1,8.6 L580.1,1 L580.1,1 Z M580.1,10.1 L587.6,10.1 L587.6,31.9 L580.1,31.9 L580.1,10.1 L580.1,10.1 Z" fill="#035A4B"></path>
                    <path d="M589.3,21 C589.3,14 594,9.7 599.2,9.7 C601.9,9.7 603.8,10.8 605,12.6 L605,10.2 L612.3,10.2 L612.3,31.6 C612.3,37.8 608.7,42.6 601.2,42.6 C595.8,42.6 592,40.1 589.9,36.6 L597,33.3 C597.8,35 599.1,36 601.2,36 C603.6,36 605,34.3 605,31.8 L605,29.6 C603.7,31.4 601.7,32.5 599.1,32.5 C594,32.3 589.3,28.1 589.3,21 L589.3,21 Z M605.2,21 C605.2,18.5 603.4,16.5 600.9,16.5 C598.4,16.5 596.6,18.5 596.6,21 C596.6,23.6 598.5,25.5 600.9,25.5 C603.3,25.5 605.2,23.5 605.2,21 L605.2,21 Z" fill="#035A4B"></path>
                    <path d="M614.1,1 L621.6,1 L621.6,8.6 L614.1,8.6 L614.1,1 L614.1,1 Z M614.1,10.1 L621.6,10.1 L621.6,31.9 L614.1,31.9 L614.1,10.1 L614.1,10.1 Z" fill="#035A4B"></path>
                    <path d="M623.4,10.1 L627,10.1 L627,5 L634.4,1 L634.4,10 L638.4,10 L638.4,16.4 L634.4,16.4 L634.4,21.1 C634.4,24.5 634.7,24.8 638.4,24.8 L638.4,31.7 L636.4,31.7 C629,31.7 627.1,29.4 627.1,21.6 L627.1,16.4 L623.5,16.4 L623.5,10.1 L623.4,10.1 Z" fill="#035A4B"></path>
                    <path d="M639.1,21 C639.1,14 643.8,9.7 649,9.7 C651.7,9.7 653.6,10.8 654.8,12.6 L654.8,10.2 L662.2,10.2 L662.2,32 L654.8,32 L654.8,29.4 C653.5,31.3 651.5,32.4 648.9,32.4 C643.9,32.3 639.1,28.1 639.1,21 L639.1,21 Z M655,21 C655,18.5 653.2,16.5 650.7,16.5 C648.2,16.5 646.4,18.5 646.4,21 C646.4,23.6 648.3,25.5 650.7,25.5 C653.1,25.5 655,23.5 655,21 L655,21 Z" fill="#035A4B"></path>
                    <path d="M664.1,0.1 L671.3,0.1 L671.3,31.9 L664.1,31.9 L664.1,0.1 L664.1,0.1 Z" fill="#035A4B"></path>
                    <path d="M117.6,73.2 C117.6,66.2 122.3,61.9 127.5,61.9 C130.2,61.9 132.1,63 133.3,64.8 L133.3,62.4 L140.7,62.4 L140.7,84.2 L133.3,84.2 L133.3,81.6 C132,83.5 130,84.6 127.4,84.6 C122.4,84.5 117.6,80.3 117.6,73.2 L117.6,73.2 Z M133.5,73.2 C133.5,70.7 131.7,68.7 129.2,68.7 C126.7,68.7 124.8,70.7 124.8,73.2 C124.8,75.8 126.7,77.7 129.2,77.7 C131.7,77.7 133.5,75.7 133.5,73.2 L133.5,73.2 Z" fill="#000000"></path>
                    <path d="M142.7,62.3 L150.1,62.3 L150.1,64.7 C151.4,62.9 153.4,61.8 155.7,61.8 C160.4,61.8 163.4,64.8 163.4,70.1 L163.4,84 L155.9,84 L155.9,71.7 C155.9,69.4 155,68.2 153.1,68.2 C151.4,68.2 150.2,69.4 150.2,72 L150.2,84 L142.8,84 L142.8,62.3 L142.7,62.3 Z" fill="#000000"></path>
                    <path d="M165,73.2 C165,66.2 169.7,61.9 174.9,61.9 C177.5,61.9 179.4,62.9 180.6,64.6 L180.6,52.4 L187.9,52.4 L187.9,84.2 L180.6,84.2 L180.6,81.7 C179.3,83.6 177.3,84.6 174.7,84.6 C169.8,84.5 165,80.3 165,73.2 L165,73.2 Z M180.9,73.2 C180.9,70.7 179.1,68.7 176.6,68.7 C174.1,68.7 172.2,70.7 172.2,73.2 C172.2,75.8 174.1,77.7 176.6,77.7 C179.1,77.7 180.9,75.7 180.9,73.2 L180.9,73.2 Z" fill="#000000"></path>
                    <path d="M200.4,62.3 L207.8,62.3 L207.8,64.9 C209.1,62.9 211.1,61.9 213.6,61.9 C216.5,61.9 218.6,63.1 219.8,65.3 C221.1,63.2 223.4,61.9 226.1,61.9 C231,61.9 233.7,64.9 233.7,70.2 L233.7,84.1 L226.2,84.1 L226.2,71.8 C226.2,69.5 225.5,68.3 223.5,68.3 C221.8,68.3 220.8,69.5 220.8,72.1 L220.8,84.1 L213.3,84.1 L213.3,71.8 C213.3,69.5 212.5,68.3 210.6,68.3 C208.9,68.3 207.8,69.5 207.8,72.1 L207.8,84.1 L200.4,84.1 L200.4,62.3 L200.4,62.3 Z" fill="#000000"></path>
                    <path d="M235.2,73.2 C235.2,66.2 239.9,61.9 245.1,61.9 C247.8,61.9 249.7,63 250.9,64.8 L250.9,62.4 L258.3,62.4 L258.3,84.2 L250.9,84.2 L250.9,81.6 C249.6,83.5 247.6,84.6 245,84.6 C240,84.5 235.2,80.3 235.2,73.2 L235.2,73.2 Z M251.1,73.2 C251.1,70.7 249.3,68.7 246.8,68.7 C244.3,68.7 242.4,70.7 242.4,73.2 C242.4,75.8 244.3,77.7 246.8,77.7 C249.4,77.7 251.1,75.7 251.1,73.2 L251.1,73.2 Z" fill="#000000"></path>
                    <path d="M259.8,73.2 C259.8,66.2 264.5,61.9 269.7,61.9 C272.3,61.9 274.2,62.9 275.4,64.6 L275.4,52.4 L282.7,52.4 L282.7,84.2 L275.4,84.2 L275.4,81.7 C274.1,83.6 272.1,84.6 269.5,84.6 C264.6,84.5 259.8,80.3 259.8,73.2 L259.8,73.2 Z M275.8,73.2 C275.8,70.7 274,68.7 271.5,68.7 C269,68.7 267.1,70.7 267.1,73.2 C267.1,75.8 269,77.7 271.5,77.7 C274,77.7 275.8,75.7 275.8,73.2 L275.8,73.2 Z" fill="#000000"></path>
                    <path d="M284.3,73.2 C284.3,67 289.1,61.9 295.7,61.9 C302.4,61.9 307.1,66.7 307.1,73.1 L307.1,75.6 L291.4,75.6 C292.1,77.5 293.8,78.5 296,78.5 C298,78.5 299.5,77.5 300.3,76 L306.2,79 C304.2,82.1 301,84.5 295.8,84.5 C288.7,84.5 284.3,79.5 284.3,73.2 L284.3,73.2 Z M291.5,70.4 L299.9,70.4 C299.2,68.7 297.7,67.8 295.8,67.8 C293.9,67.8 292.3,68.8 291.5,70.4 L291.5,70.4 Z" fill="#000000"></path>
                    <path d="M318.8,73.2 C318.8,66.9 323.6,61.9 330.2,61.9 C336.7,61.9 341.6,66.9 341.6,73.2 C341.6,79.5 336.8,84.5 330.2,84.5 C323.6,84.5 318.8,79.5 318.8,73.2 L318.8,73.2 Z M334.5,73.2 C334.5,70.7 332.7,68.7 330.3,68.7 C327.9,68.7 326.1,70.7 326.1,73.2 C326.1,75.7 327.9,77.6 330.3,77.6 C332.7,77.6 334.5,75.7 334.5,73.2 L334.5,73.2 Z" fill="#000000"></path>
                    <path d="M342.3,62.3 L345.5,62.3 C345.5,54.9 348,52.3 355.7,52.3 L356.5,52.3 L356.5,59.4 C353.1,59.4 352.8,59.7 352.8,61.9 L352.8,62.2 L356.5,62.2 L356.5,68.7 L352.8,68.7 L352.8,83.9 L345.5,83.9 L345.5,68.7 L342.3,68.7 L342.3,62.3 L342.3,62.3 Z" fill="#000000"></path>
                    <path d="M367.9,78.1 L375.2,76.4 C375.7,78.1 377.1,79 378.8,79 C380.3,79 381,78.3 381,77.5 C381,76.5 379,76.2 376.5,75.7 C372.8,75 368.6,73.8 368.6,69 C368.6,65 372.7,61.8 378.3,61.9 C383.7,61.9 386.8,64.2 388.3,67.5 L381.6,69.2 C381.1,67.8 379.8,67.1 378.3,67.1 C376.9,67.1 376.1,67.7 376.1,68.4 C376.1,69.2 377.7,69.5 380.4,70.1 C384.1,70.8 388.6,72.1 388.6,77.1 C388.6,80.8 385.2,84.7 378.6,84.7 C372.7,84.5 369.3,82.1 367.9,78.1 L367.9,78.1 Z" fill="#000000"></path>
                    <path d="M389.7,73.2 C389.7,66.9 394.5,61.9 401.1,61.9 C407.6,61.9 412.5,66.9 412.5,73.2 C412.5,79.5 407.7,84.5 401.1,84.5 C394.5,84.5 389.7,79.5 389.7,73.2 L389.7,73.2 Z M405.3,73.2 C405.3,70.7 403.5,68.7 401.1,68.7 C398.7,68.7 396.9,70.7 396.9,73.2 C396.9,75.7 398.7,77.6 401.1,77.6 C403.5,77.6 405.3,75.7 405.3,73.2 L405.3,73.2 Z" fill="#000000"></path>
                    <path d="M413.2,62.3 L416.4,62.3 C416.4,54.9 418.9,52.3 426.6,52.3 L427.4,52.3 L427.4,59.4 C424,59.4 423.7,59.7 423.7,61.9 L423.7,62.2 L427.4,62.2 L427.4,68.7 L423.7,68.7 L423.7,83.9 L416.4,83.9 L416.4,68.7 L413.2,68.7 L413.2,62.3 L413.2,62.3 Z" fill="#000000"></path>
                    <path d="M429.1,62.3 L432.7,62.3 L432.7,57.2 L440.1,53.2 L440.1,62.2 L444.1,62.2 L444.1,68.6 L440.1,68.6 L440.1,73.3 C440.1,76.7 440.4,77 444.1,77 L444.1,83.9 L442.1,83.9 C434.7,83.9 432.8,81.6 432.8,73.8 L432.8,68.6 L429.2,68.6 L429.2,62.3 L429.1,62.3 Z" fill="#000000"></path>
                    <path d="M445.1,62.3 L452.5,62.3 L456.2,74 L460.2,62.3 L466.6,62.3 L470.5,74 L474.3,62.3 L481.7,62.3 L474.1,84.1 L467.2,84.1 L463.2,72.8 L459.2,84.1 L452.3,84.1 L445.1,62.3 L445.1,62.3 Z" fill="#000000"></path>
                    <path d="M480.8,73.2 C480.8,66.2 485.5,61.9 490.7,61.9 C493.4,61.9 495.3,63 496.5,64.8 L496.5,62.4 L503.9,62.4 L503.9,84.2 L496.5,84.2 L496.5,81.6 C495.2,83.5 493.2,84.6 490.6,84.6 C485.5,84.5 480.8,80.3 480.8,73.2 L480.8,73.2 Z M496.7,73.2 C496.7,70.7 494.9,68.7 492.4,68.7 C489.9,68.7 488.1,70.7 488.1,73.2 C488.1,75.8 490,77.7 492.4,77.7 C494.8,77.7 496.7,75.7 496.7,73.2 L496.7,73.2 Z" fill="#000000"></path>
                    <path d="M505.9,62.3 L513.1,62.3 L513.1,66.1 C514.1,63.8 515.9,62.3 518.9,62.3 L521.3,62.3 L521.3,69.6 L516.8,69.6 C514,69.6 513.1,70.6 513.1,74 L513.1,84.1 L505.9,84.1 L505.9,62.3 L505.9,62.3 Z" fill="#000000"></path>
                    <path d="M522.1,73.2 C522.1,67 526.9,61.9 533.5,61.9 C540.2,61.9 544.9,66.7 544.9,73.1 L544.9,75.6 L529.2,75.6 C529.9,77.5 531.6,78.5 533.8,78.5 C535.8,78.5 537.3,77.5 538.1,76 L544,79 C542,82.1 538.8,84.5 533.6,84.5 C526.5,84.5 522.1,79.5 522.1,73.2 L522.1,73.2 Z M529.3,70.4 L537.7,70.4 C537,68.7 535.5,67.8 533.6,67.8 C531.6,67.8 530.1,68.8 529.3,70.4 L529.3,70.4 Z" fill="#000000"></path>
                    <path d="M546.5,76.5 L554,76.5 L554,84.1 L546.5,84.1 L546.5,76.5 L546.5,76.5 Z" fill="#000000"></path>
                </g>
            </g>
        </g>
    </g>
</svg>